<?xml version="1.0" standalone="no"?>
<!DOCTYPE svg PUBLIC "-//W3C//DTD SVG 20010904//EN"
 "http://www.w3.org/TR/2001/REC-SVG-20010904/DTD/svg10.dtd">
<svg version="1.0" xmlns="http://www.w3.org/2000/svg"
 width="493.000000pt" height="753.000000pt" viewBox="0 0 493.000000 753.000000"
 preserveAspectRatio="xMidYMid meet">

<g transform="translate(0.000000,753.000000) scale(0.100000,-0.100000)"
fill="#000000" stroke="none">
<path d="M2943 7031 c-133 -110 -231 -228 -295 -355 -44 -88 -47 -115 -3 -34
57 107 113 185 195 271 45 48 84 86 86 84 2 -1 -8 -31 -22 -65 -33 -83 -61
-193 -80 -322 -20 -132 -13 -426 15 -610 31 -206 153 -792 231 -1115 171 -699
203 -867 235 -1234 30 -340 8 -861 -46 -1074 -65 -259 -263 -591 -503 -847
-76 -81 -300 -325 -381 -415 -87 -98 -155 -184 -156 -199 0 -6 -5 0 -11 14 -7
15 -14 145 -18 335 -6 286 -9 324 -39 490 -48 274 -90 427 -166 590 -20 44
-46 100 -57 125 -55 126 -99 216 -157 325 -132 248 -161 309 -195 408 -89 262
-99 488 -32 716 42 140 74 206 169 353 21 32 40 71 44 88 5 29 7 30 24 14 10
-9 30 -46 45 -82 26 -64 27 -78 35 -310 5 -133 15 -282 23 -330 53 -320 63
-346 166 -453 78 -81 125 -99 275 -106 85 -4 110 -2 165 17 167 56 240 145
287 350 20 93 29 454 14 632 -22 255 -53 428 -146 798 -30 118 -66 278 -80
355 -14 77 -30 158 -35 180 -20 88 -32 287 -28 464 3 167 2 179 -8 121 -20
-108 -27 -315 -15 -462 12 -150 67 -473 105 -626 77 -304 120 -528 144 -752
17 -151 18 -212 12 -440 -8 -274 -15 -323 -58 -406 -54 -105 -210 -173 -401
-174 -107 0 -211 81 -282 222 -61 120 -77 190 -89 383 -25 404 -50 566 -104
674 -47 91 -73 91 -82 0 -5 -41 -25 -89 -80 -197 -80 -154 -143 -342 -163
-487 -15 -109 -13 -304 4 -411 22 -139 63 -240 209 -519 216 -412 296 -624
377 -1000 48 -227 61 -342 68 -635 7 -263 8 -278 32 -335 28 -66 49 -76 64
-30 34 103 110 197 397 490 308 314 362 375 449 504 120 178 167 289 224 526
76 316 90 612 55 1110 -17 234 -133 880 -229 1275 -33 135 -69 288 -80 340
-11 52 -32 135 -46 185 -28 97 -62 258 -94 455 -48 285 -61 570 -37 755 17
129 42 214 100 339 20 44 34 81 32 83 -2 2 -31 -18 -63 -46z"/>
<path d="M2237 4130 c-76 -32 -116 -64 -158 -125 -61 -90 -82 -156 -83 -260
-1 -122 21 -192 79 -250 177 -178 463 -113 578 132 84 180 63 363 -51 447 -63
46 -127 65 -230 71 -72 4 -95 2 -135 -15z m258 -45 c109 -52 165 -150 165
-289 0 -57 -6 -83 -29 -131 -34 -73 -108 -156 -170 -193 -41 -24 -55 -27 -141
-27 -84 1 -100 3 -139 27 -106 63 -145 134 -146 263 0 163 111 334 243 372 64
18 151 9 217 -22z"/>
<path d="M466 3341 c-4 -5 -1 -22 5 -38 44 -109 50 -164 59 -488 9 -350 20
-436 72 -583 58 -165 140 -307 279 -483 102 -128 245 -260 445 -409 307 -229
456 -352 494 -408 39 -58 66 -66 76 -25 14 55 8 267 -10 358 -26 131 -59 207
-196 457 -160 291 -203 359 -339 541 -62 84 -136 185 -165 226 -28 40 -58 83
-66 95 -14 19 -12 18 20 -4 73 -50 187 -139 239 -186 166 -149 377 -476 469
-725 34 -92 79 -277 96 -394 26 -175 26 -175 42 -175 21 0 31 30 56 175 29
167 28 278 -6 475 -29 169 -61 280 -111 380 -31 61 -230 350 -348 503 -49 65
-164 175 -252 244 -144 111 -392 252 -560 318 -83 33 -162 76 -226 122 -48 34
-64 39 -73 24z m238 -180 c133 -55 345 -162 420 -212 201 -136 392 -312 492
-452 32 -45 67 -94 79 -108 11 -15 29 -39 40 -55 11 -15 32 -42 46 -59 72 -84
150 -253 189 -405 32 -126 49 -278 41 -350 -7 -51 -9 -56 -10 -24 0 22 -6 67
-12 99 -6 33 -12 69 -14 80 -1 11 -5 27 -8 35 -3 8 -8 33 -11 55 -9 62 -31
136 -39 129 -4 -4 -7 6 -7 22 0 40 -19 104 -30 104 -6 0 -10 8 -10 18 0 24
-29 82 -40 82 -15 0 -23 -21 -11 -33 14 -14 14 -37 1 -37 -16 0 -24 51 -11 73
10 16 9 23 -8 41 -11 11 -23 33 -26 48 -4 16 -11 25 -16 22 -5 -3 -9 -1 -9 5
0 6 -8 8 -17 5 -15 -5 -15 -4 -4 4 12 9 13 13 1 27 -11 13 -15 13 -23 3 -6
-10 -7 -9 -4 4 3 9 -1 22 -9 29 -9 7 -24 30 -35 51 -11 21 -24 38 -30 38 -6 0
-8 4 -4 9 3 5 1 13 -5 16 -6 4 -29 32 -52 63 -23 31 -59 75 -79 97 -21 22 -47
52 -59 67 -11 15 -29 30 -40 33 -11 4 -20 12 -20 20 0 7 -15 22 -32 34 -38 24
-98 68 -147 108 -53 44 -105 73 -119 68 -8 -3 -10 0 -6 7 5 8 -2 9 -22 4 -21
-5 -25 -4 -14 3 13 9 12 12 -5 25 -19 14 -52 32 -105 55 -14 6 -47 25 -75 41
-27 16 -56 29 -63 30 -7 0 -20 7 -28 15 -9 8 -24 15 -34 15 -10 0 -25 8 -32
18 -17 23 -48 35 -49 19 0 -7 -3 -5 -6 3 -3 8 -17 25 -32 38 -30 27 -30 27
103 -27z m446 -311 c0 -5 -5 -10 -11 -10 -5 0 -7 5 -4 10 3 6 8 10 11 10 2 0
4 -4 4 -10z m80 -50 c0 -5 -7 -10 -15 -10 -8 0 -15 5 -15 10 0 6 7 10 15 10 8
0 15 -4 15 -10z m-513 -522 c-3 -8 -6 -5 -6 6 -1 11 2 17 5 13 3 -3 4 -12 1
-19z m643 -308 c0 -5 -4 -10 -10 -10 -5 0 -10 5 -10 10 0 6 5 10 10 10 6 0 10
-4 10 -10z m30 -90 c0 -5 -4 -10 -10 -10 -5 0 -10 5 -10 10 0 6 5 10 10 10 6
0 10 -4 10 -10z"/>
<path d="M4285 2444 c-39 -32 -183 -93 -355 -153 -500 -171 -690 -278 -935
-526 -169 -171 -297 -425 -215 -425 10 0 26 12 35 26 33 50 180 196 240 239
66 47 155 100 155 92 0 -2 -19 -17 -42 -32 -139 -91 -276 -237 -413 -440 -27
-40 -85 -119 -128 -175 -112 -147 -99 -168 67 -102 56 22 169 62 251 87 296
92 485 178 660 301 266 185 527 492 624 731 54 133 122 342 119 365 -4 28 -35
34 -63 12z m5 -64 c0 -17 -103 -110 -122 -110 -5 0 -7 -4 -4 -8 3 -5 0 -9 -7
-10 -24 -2 -87 -27 -87 -34 0 -5 -6 -8 -14 -8 -8 0 -17 -7 -20 -15 -5 -13 -10
-14 -27 -5 -15 9 -24 9 -32 1 -6 -6 -20 -11 -30 -11 -10 0 -33 -6 -50 -14 -18
-8 -43 -17 -57 -19 -76 -16 -210 -64 -283 -102 -27 -14 -53 -25 -58 -25 -10 0
-63 -35 -87 -57 -7 -7 -20 -13 -28 -13 -15 0 -75 -38 -164 -102 -129 -95 -197
-147 -215 -168 -11 -12 -33 -32 -50 -43 l-30 -22 25 35 c81 117 384 351 564
436 70 33 194 79 416 154 134 45 272 102 315 129 35 23 45 25 45 11z m-230
-330 c0 -11 -4 -20 -9 -20 -6 0 -9 9 -8 20 1 11 5 20 9 20 4 0 8 -9 8 -20z
m-385 -9 c-3 -6 -11 -11 -16 -11 -5 0 -4 6 3 14 14 16 24 13 13 -3z m-361
-497 c4 -11 1 -14 -11 -12 -9 2 -18 9 -21 16 -6 18 25 15 32 -4z"/>
<path d="M2265 794 c-22 -2 -98 -8 -170 -15 -196 -16 -477 -57 -584 -85 -207
-53 -544 -178 -678 -250 -88 -47 -288 -177 -298 -194 -11 -18 24 -11 93 19
180 76 642 198 902 238 422 64 627 76 1145 70 440 -5 681 -22 955 -67 136 -22
404 -80 514 -110 37 -11 72 -17 77 -14 37 22 -36 84 -138 117 -175 58 -655
182 -813 211 -92 17 -230 38 -405 62 -103 14 -511 27 -600 18z"/>
</g>
</svg>
